<?xml version="1.0" encoding="UTF-8"?>
<svg id="Ebene_1" xmlns="http://www.w3.org/2000/svg" viewBox="0 0 465.403 296.30006">
  <defs>
    <style>
      .cls-1 {
        fill: #4cc9e8;
      }

      .cls-2 {
        fill: #fd71ba;
      }

      .cls-3 {
        fill: #bc41b7;
      }

      .cls-4 {
        fill: #6c65c2;
      }

      .cls-5 {
        fill: #b996fd;
      }
    </style>
  </defs>
  <path class="cls-5" d="M94.81107,30.31528c-.50287-1.21279-1.05505-2.40096-1.65651-3.56446v-.00987C84.96564,10.86106,68.40045,0,49.30116,0,22.07213,0,0,22.07214,0,49.30116c0,5.30481.83813,10.40747,2.39111,15.19459,1.21774,3.77649,2.87919,7.35576,4.93012,10.66878,8.68194,14.06564,24.23645,23.43779,41.97994,23.43779,27.22904,0,49.30116-22.07214,49.30116-49.30116,0-6.72962-1.34593-13.14371-3.79126-18.98588Z"/>
  <path class="cls-2" d="M416.10183,0c-21.17976,0-39.23385,13.35073-46.21491,32.09505-1.99669,5.3541-3.08626,11.15192-3.08626,17.20612,0,27.22902,22.07214,49.30116,49.30116,49.30116,19.44929,0,36.26597-11.26037,44.28721-27.61852.30566-.61133.59159-1.23253.86277-1.85866,2.67214-6.06407,4.15118-12.76901,4.15118-19.82398,0-27.22902-22.07214-49.30116-49.30116-49.30116Z"/>
  <path class="cls-4" d="M373.70283,246.99884c0,7.1536-1.52339,13.94732-4.25963,20.08035l-.02464.04929-.46837,1.0107c-7.91283,16.64901-24.88722,28.16082-44.54853,28.16082s-36.63569-11.51181-44.54853-28.16082l-.47821-1.03038v-.0148c-2.75101-6.13797-4.2744-12.93662-4.2744-20.09516,0-8.18398,1.99669-15.90456,5.52667-22.69828l43.77449-94.6385,43.79917,94.68291c3.51518,6.78385,5.50203,14.48468,5.50203,22.65386h-.00006Z"/>
  <path class="cls-4" d="M279.01501,32.36623v-.01974c-.96138-2.61299-2.13968-5.11746-3.50531-7.50362l-.02958-.05916h0c-8.50445-14.80022-24.46817-24.78371-42.7737-24.78371s-35.66445,10.86106-43.84846,26.74095v.00987c-.60639,1.1635-1.15857,2.35168-1.66145,3.56446-2.44535,5.84218-3.79126,12.25626-3.79126,18.98588,0,8.16918,1.98685,15.87002,5.50693,22.65386l43.79423,94.68291,43.81888-94.72727c3.50037-6.76904,5.48229-14.46001,5.48229-22.60951,0-5.95062-1.05505-11.6548-2.98765-16.93494h-.00493Z"/>
  <path class="cls-5" d="M96.30489,226.17403c-2.95313,6.33025-4.60473,13.38528-4.60473,20.82481,0,6.40915,1.22267,12.53238,3.45108,18.14779L7.32123,75.1646c8.68194,14.06564,24.23645,23.43779,41.97994,23.43779,27.22904,0,49.30116-22.07214,49.30116-49.30116,0-6.72962-1.34593-13.14371-3.79126-18.98588l46.19026,99.34678-44.69644,96.51197v-.00006Z"/>
  <path class="cls-3" d="M185.69775,226.17896h.00493l-44.70136-96.5169-44.69644,96.51197c-2.95313,6.33025-4.60473,13.38528-4.60473,20.82481,0,6.40915,1.22267,12.53238,3.45108,18.14779l.00985.02467c.6557,1.67132,1.41001,3.29334,2.24813,4.86602,8.26288,15.61864,24.68508,26.26274,43.5921,26.26274s35.32923-10.6441,43.59702-26.26274l.0148-.02961v-.0148c.77897-1.45436,1.47903-2.95313,2.0953-4.49133,2.31716-5.70905,3.59404-11.95553,3.59404-18.50274,0-7.43953-1.65158-14.49455-4.60474-20.81987Z"/>
  <path class="cls-2" d="M186.70845,265.50158c2.31716-5.70905,3.59404-11.95553,3.59404-18.50274,0-7.43953-1.65158-14.49455-4.60474-20.81987h.00493l-44.70136-96.5169,46.19026-99.34678c-2.44535,5.84218-3.79126,12.25626-3.79126,18.98588,0,8.16918,1.98685,15.87002,5.50693,22.65386l43.79423,94.68291-45.99305,98.86364Z"/>
  <path class="cls-1" d="M280.62717,224.30056c-3.52995,6.79371-5.52667,14.51423-5.52667,22.69828,0,7.15854,1.52342,13.95719,4.26947,20.09516l-46.66847-100.45606,43.81888-94.72727c3.50037-6.76904,5.48229-14.46001,5.48229-22.60951,0-5.95062-1.05505-11.6548-2.98765-16.93494l45.38665,97.29584-43.77449,94.6385Z"/>
  <path class="cls-2" d="M369.4432,267.07919c2.73624-6.13304,4.25963-12.92675,4.25963-20.08035,0-8.16918-1.98685-15.87002-5.502-22.65386l-43.79917-94.68291,45.48526-97.56702c-1.99669,5.3541-3.08626,11.15192-3.08626,17.20612,0,27.22902,22.07214,49.30116,49.30116,49.30116,19.44929,0,36.26597-11.26037,44.28721-27.61852l-90.94584,196.09538Z"/>
</svg>