<?xml version="1.0" encoding="UTF-8"?>
<svg id="Ebene_1" xmlns="http://www.w3.org/2000/svg" viewBox="0 0 1217.34999 234.99121">
  <defs>
    <style>
      .cls-1 {
        font-family: Panton-Black, Panton;
        font-size: 210px;
        font-weight: 800;
      }

      .cls-2 {
        fill: #4cc9e8;
      }

      .cls-3 {
        fill: #fd71ba;
      }

      .cls-4 {
        fill: #bc41b7;
      }

      .cls-5 {
        fill: #6c65c2;
      }

      .cls-6 {
        fill: #b996fd;
      }
    </style>
  </defs>
  <path class="cls-6" d="M56.92703,34.60051c-.30194-.72821-.63348-1.4416-.99461-2.1402l-.00296-.00593c-4.91388-9.53471-14.86006-16.05596-26.32776-16.05596C13.25269,16.39843,0,29.6511,0,46.00013c0,3.18515.50323,6.24892,1.43568,9.12325.73117,2.26748,1.72875,4.41657,2.96017,6.40579,5.21287,8.44537,14.55221,14.07266,25.20586,14.07266,16.34901,0,29.6017-13.25269,29.6017-29.6017,0-4.04064-.80812-7.89182-2.27637-11.39962Z"/>
  <path class="cls-3" d="M249.83837,16.39843c-12.7169,0-23.55704,8.01613-27.74863,19.2707-1.19887,3.21474-1.85307,6.6959-1.85307,10.331,0,16.34901,13.25269,29.6017,29.6017,29.6017,11.67788,0,21.77501-6.76104,26.59121-16.58288.18353-.36706.35522-.74004.51803-1.11599,1.60441-3.64101,2.49246-7.66683,2.49246-11.90283,0-16.34903-13.25269-29.6017-29.6017-29.6017Z"/>
  <path class="cls-5" d="M224.38091,164.70296c0,4.29521-.9147,8.37432-2.55759,12.05677l-.0148.02959-.28122.60685c-4.75107,9.99648-14.94293,16.90849-26.74809,16.90849s-21.99702-6.91201-26.74809-16.90849l-.28715-.61868-.00296-.00887c-1.6488-3.68542-2.5635-7.7675-2.5635-12.06566,0-4.91389,1.19887-9.54951,3.31836-13.62864l26.28335-56.82342,26.29816,56.85007c2.11058,4.0732,3.30354,8.69698,3.30354,13.60199Z"/>
  <path class="cls-5" d="M167.52788,35.83194l-.00296-.01183c-.57473-1.56919-1.28286-3.07342-2.10291-4.50542l-.01657-.03548-.00192.0034c-5.10631-8.89112-14.69241-14.88416-25.68349-14.88416-11.4677,0-21.41388,6.52125-26.32776,16.05596l-.00296.00593c-.36113.6986-.69267,1.41199-.99461,2.1402-1.46825,3.50779-2.27637,7.35898-2.27637,11.39962,0,4.905,1.19296,9.52879,3.30651,13.60199l26.2952,56.85007,26.30999-56.87672c2.10171-4.06431,3.29171-8.68218,3.29171-13.57534,0-3.57293-.63348-6.99785-1.79386-10.1682Z"/>
  <path class="cls-6" d="M57.82397,152.1992c-1.77316,3.80085-2.76481,8.03685-2.76481,12.50376,0,3.84822.73412,7.52475,2.07212,10.89639L4.39585,61.52917c5.21287,8.44537,14.55221,14.07266,25.20586,14.07266,16.34901,0,29.6017-13.25269,29.6017-29.6017,0-4.04064-.80812-7.89182-2.27637-11.39962l27.73384,59.65039-26.8369,57.9483Z"/>
  <path class="cls-4" d="M111.49777,152.20215h.00296l-26.83986-57.95124-26.8369,57.9483c-1.77316,3.80085-2.76481,8.03685-2.76481,12.50376,0,3.84822.73412,7.52475,2.07212,10.89639l.00593.0148c.39369,1.0035.8466,1.97739,1.34984,2.92169,4.96125,9.37782,14.82157,15.76883,26.17382,15.76883s21.21257-6.39102,26.17678-15.76883l.00889-.01776.00294-.00887c.46475-.87325.88511-1.77316,1.25513-2.69673,1.39127-3.42786,2.15796-7.17841,2.15796-11.10951,0-4.4669-.99165-8.70291-2.76481-12.50081Z"/>
  <path class="cls-3" d="M112.10461,175.81247c1.39127-3.42786,2.15796-7.17841,2.15796-11.10951,0-4.4669-.99165-8.70291-2.76481-12.50081h.00296l-26.83986-57.95124,27.73384-59.65039c-1.46825,3.50779-2.27637,7.35898-2.27637,11.39962,0,4.905,1.19296,9.52879,3.30651,13.60199l26.2952,56.85007-27.61542,59.36028Z"/>
  <path class="cls-2" d="M168.49586,151.07432c-2.11949,4.07912-3.31836,8.71474-3.31836,13.62864,0,4.29815.9147,8.38024,2.5635,12.06566l-28.02096-60.31643,26.30999-56.87672c2.10171-4.06431,3.29171-8.68218,3.29171-13.57534,0-3.57293-.63348-6.99785-1.79386-10.1682l27.25133,58.41897-26.28335,56.82342Z"/>
  <path class="cls-3" d="M221.82331,176.75973c1.64289-3.68245,2.55759-7.76156,2.55759-12.05677,0-4.905-1.19296-9.52879-3.30354-13.60199l-26.29816-56.85007,27.31053-58.58178c-1.19887,3.21474-1.85307,6.6959-1.85307,10.331,0,16.34901,13.25269,29.6017,29.6017,29.6017,11.67788,0,21.77501-6.76104,26.59121-16.58288l-54.60627,117.74077Z"/>
  <text class="cls-1" transform="translate(289.16343 179.54932)"><tspan x="0" y="0">EBSTERS</tspan></text>
</svg>