<?xml version="1.0" encoding="UTF-8"?>
<svg id="Ebene_1" data-name="Ebene 1" xmlns="http://www.w3.org/2000/svg" viewBox="0 0 481 306.23">
  <defs>
    <style>
      .cls-1 {
        fill: #4cc9e8;
      }

      .cls-1, .cls-2, .cls-3, .cls-4, .cls-5 {
        stroke-width: 0px;
      }

      .cls-2 {
        fill: #b996fd;
      }

      .cls-3 {
        fill: #bc41b7;
      }

      .cls-4 {
        fill: #6c65c2;
      }

      .cls-5 {
        fill: #fd71ba;
      }
    </style>
  </defs>
  <path class="cls-2" d="m99.54,233.76c-3.06,6.54-4.77,13.82-4.77,21.52,0,6.63,1.26,12.96,3.56,18.76L7.57,77.69c-2.12-3.43-3.84-7.13-5.1-11.03-1.62-4.94-2.48-10.22-2.48-15.7C0,22.81,22.81,0,50.95,0,70.69,0,87.82,11.23,96.27,27.63v.02c.62,1.2,1.2,2.43,1.72,3.68l47.73,102.68-46.18,99.75Z"/>
  <path class="cls-5" d="m481,50.96c0,7.28-1.53,14.22-4.29,20.48-.28.65-.59,1.29-.9,1.93l-94,202.67c2.84-6.33,4.41-13.36,4.41-20.76,0-8.43-2.05-16.4-5.68-23.41l-45.27-97.86,47.01-100.83C389.5,13.79,408.15,0,430.05,0c28.14,0,50.95,22.81,50.95,50.95Z"/>
  <path class="cls-4" d="m386.23,255.28c0,7.39-1.57,14.41-4.4,20.75l-.03.05-.48,1.04c-8.18,17.21-25.72,29.1-46.04,29.1s-37.86-11.9-46.04-29.1l-.49-1.06v-.02c-2.84-6.34-4.42-13.37-4.42-20.77,0-8.46,2.06-16.44,5.71-23.46l45.24-97.81,45.27,97.86c3.63,7.01,5.69,14.97,5.69,23.41Z"/>
  <path class="cls-4" d="m288.37,33.45v-.02c-.99-2.7-2.21-5.29-3.62-7.76l-.03-.06h0c-8.79-15.3-25.29-25.61-44.21-25.61s-36.86,11.23-45.32,27.64h0c-.62,1.21-1.19,2.44-1.71,3.69-2.53,6.04-3.92,12.67-3.92,19.62,0,8.44,2.05,16.4,5.69,23.41l45.26,97.86,45.29-97.9c3.62-7,5.67-14.94,5.67-23.37,0-6.15-1.09-12.05-3.09-17.5Z"/>
  <path class="cls-3" d="m191.92,233.76h0l-46.2-99.75-46.19,99.75c-3.05,6.54-4.76,13.83-4.76,21.52,0,6.62,1.26,12.95,3.57,18.76v.03c.69,1.73,1.47,3.4,2.33,5.03,8.54,16.14,25.51,27.14,45.05,27.14s36.51-11,45.06-27.14l.02-.03v-.02c.81-1.5,1.53-3.05,2.17-4.64,2.39-5.9,3.71-12.36,3.71-19.12,0-7.69-1.71-14.98-4.76-21.52Z"/>
  <path class="cls-5" d="m192.97,274.4c2.39-5.9,3.71-12.36,3.71-19.12,0-7.69-1.71-14.98-4.76-21.52h0l-46.2-99.75,47.74-102.68c-2.53,6.04-3.92,12.67-3.92,19.62,0,8.44,2.05,16.4,5.69,23.41l45.26,97.86-47.53,102.18Z"/>
  <path class="cls-1" d="m290.03,231.82c-3.65,7.02-5.71,15-5.71,23.46,0,7.4,1.57,14.42,4.41,20.77l-48.23-103.82,45.29-97.9c3.62-7,5.67-14.94,5.67-23.37,0-6.15-1.09-12.05-3.09-17.5l46.91,100.56-45.24,97.81Z"/>
</svg>